<svg xmlns="http://www.w3.org/2000/svg" viewBox="0 0 975.27 226.94"><defs><style>.cls-1{fill:#fff;}</style></defs><title>logo-secondary</title><g id="Layer_2" data-name="Layer 2"><g id="Layer_1-2" data-name="Layer 1"><path class="cls-1" d="M65,.58V13.82H23.41V34.73H63V48.49H23.23V70.27H65.8V83.63H8.13V.58Z"/><path class="cls-1" d="M80,83.63V.58H96l28.17,63,27.58-63h15.39V83.63H152.92V25.79L130.38,83.63H117.26l-23-57.84V83.63Z"/><path class="cls-1" d="M200,.58V83.63H184.57V.58Z"/><path class="cls-1" d="M232.77.58V70.27h33V83.63H217.38V.58Z"/><path class="cls-1" d="M306.41,83.63V.58h16l28.17,63,27.58-63h15.39V83.63H379.3V25.79L356.76,83.63H343.64l-23-57.84V83.63Z"/><path class="cls-1" d="M419.48,83.63H403.69l35.25-83h16.55l36,83.05H475L465.48,61H437.89l5.29-13.36h16.73L446.84,16.44Z"/><path class="cls-1" d="M567.87,80.15a68.54,68.54,0,0,1-24.39,4.06q-44.73,0-44.72-43.27Q498.76,0,543.48,0a68.54,68.54,0,0,1,24.39,4.07V18a58,58,0,0,0-23.23-4.64q-29.91,0-29.91,27.58,0,29.91,29.91,29.91a58,58,0,0,0,23.23-4.64Z"/><path class="cls-1" d="M582.39,83.63V.58h15.39V34.85h40.94V.58h15.39V83.63H638.72V48.2H597.78V83.63Z"/><path class="cls-1" d="M671.53,83.63V.58h15.39L730.77,61.1V.58h14.81V83.63H730.19L686.34,21.84V83.63Z"/><path class="cls-1" d="M778.39.58V83.63H763V.58Z"/><path class="cls-1" d="M862,80.15a68.54,68.54,0,0,1-24.39,4.06q-44.71,0-44.72-43.27Q792.91,0,837.63,0A68.54,68.54,0,0,1,862,4.07V18a58,58,0,0,0-23.23-4.64q-29.91,0-29.91,27.58,0,29.91,29.91,29.91A58,58,0,0,0,862,66.21Z"/><path class="cls-1" d="M891.93.58V83.63H876.54V.58Zm58.43,0L914.93,39.32l39.15,44.31H932.76l-32.11-38.8v-10L931.54.58Z"/><path class="cls-1" d="M975.27.58V83.63H959.88V.58Z"/><path class="cls-1" d="M62.43,143.31v5.23H34v77.82H27.88V148.54H0v-5.23Z"/><path class="cls-1" d="M72.3,226.36V143.31h34.27q22.53,0,22.53,19.92,0,17.25-24.45,24.45l28,38.68h-8.36L96.75,187.85v-4.12q25.56-3.78,25.56-20,0-15-16.73-15H78.4v77.65Z"/><path class="cls-1" d="M143.27,226.36h-6.5l37.57-83.05h7.26l37.75,83.05h-7.26l-12.31-27.88H162.56l1.8-5.23h33.16L177.6,148.07Z"/><path class="cls-1" d="M230.68,226.36V143.31h7.84L294,216V143.31h5.52v83.05h-4.94l-58.36-76.2v76.2Z"/><path class="cls-1" d="M317.5,223.45v-6.38a85.68,85.68,0,0,0,28.81,4.64q26.07,0,26.07-19.74,0-14.52-16.95-14.52H338.35q-23.18,0-23.17-20.91,0-23.81,34-23.81a104.47,104.47,0,0,1,27,3.48V152a90.37,90.37,0,0,0-27-4.06q-27.87,0-27.87,18.58,0,15.11,17.07,15.1h17.08q23.06,0,23.05,20.33,0,25-32.17,25A111.4,111.4,0,0,1,317.5,223.45Z"/><path class="cls-1" d="M394.16,226.36V143.31H429q24.27,0,24.28,22.82,0,22.49-38.86,28.63l-1-5.57q33.11-4.59,33.1-22.59T428,148.71H400.26v77.65Z"/><path class="cls-1" d="M464.61,185q0-42.22,41.7-42.22,41.05,0,41.06,42.22,0,42-41.06,42Q464.61,226.94,464.61,185Zm41.7,36.76q34.38,0,34.38-37.11,0-36.65-34.38-36.64-35,0-35,36.64Q471.29,221.71,506.31,221.71Z"/><path class="cls-1" d="M563.05,226.36V143.31h34.26q22.55,0,22.54,19.92,0,17.25-24.45,24.45l28.05,38.68h-8.37L587.5,187.85v-4.12q25.54-3.78,25.55-20,0-15-16.72-15H569.15v77.65Z"/><path class="cls-1" d="M688.49,143.31v5.23H660v77.82h-6.1V148.54H626.06v-5.23Z"/><path class="cls-1" d="M752.9,143.31v5.23H704.46v33.1h46.47v5.23H704.46v34.26h49.25v5.23H698.37V143.31Z"/></g></g></svg>